<svg width="70" height="70" viewBox="0 0 70 70" fill="none" xmlns="http://www.w3.org/2000/svg">
<path d="M61.4,50.4c-2.9,0-2.9-4-5.9-4c-2.9,0-2.9,4-5.9,4c-2.9,0-2.9-4-5.9-4c-2.9,0-2.9,4-5.9,4c-2.9,0-2.9-4-5.9-4"
		 stroke="#4E7661" stroke-width="1.5" stroke-linecap="round" stroke-linejoin="round"/>
<path d="M60.5,42.8c-2.9,0-2.9-4-5.8-4c-2.9,0-2.9,4-5.8,4c-2.9,0-2.9-4-5.8-4c-2.9,0-2.9,4-5.8,4c-2.9,0-2.9-4-5.8-4
		c-2.9,0-2.9,4-5.8,4c-2.9,0-2.9-4-5.8-4c-2.9,0-2.9,4-5.8,4s-2.9-4-5.8-4" stroke="#4E7661" stroke-width="1.5" stroke-linecap="round" stroke-linejoin="round"/>
<path d="M46.6,26.2c0,1.1-0.9,2-2,2s-2-0.9-2-2c0-1.1,2-3.1,2-3.1S46.6,25,46.6,26.2z" stroke="#4E7661" stroke-width="1.5" stroke-linecap="round" stroke-linejoin="round"/>
<path d="M36.9,22.4l6.7-3.4l-1.7-3.4L35.1,19c-0.5,0.3-1.1,0.2-1.6,0L32,18.2c-0.7-0.4-1.6-0.4-2.3,0l-18,9.1
	c-0.9,0.4-1.2,1.5-0.8,2.4l3.1,6.2c0.4,0.9,1.5,1.2,2.4,0.8l17.9-9.1c0.8-0.4,1.3-1.1,1.4-2l0.2-1.8C36,23.2,36.4,22.7,36.9,22.4z"
	 stroke="#4E7661" stroke-width="1.5" stroke-linecap="round" stroke-linejoin="round"/>
<path d="M34.2,24.2c-2.9,0.7-5.5,1.1-7.1,1C25,25,23,24.7,21,24.4l-8.6,4.4c0,0,0,0-0.1,0.1s0,0.1,0,0.1l3.1,6.2
	c0,0.1,0.1,0.1,0.1,0.1c0,0,0,0,0,0l17.9-9.1c0.3-0.1,0.4-0.4,0.5-0.7c0,0-4.3,1.3-7,1.2s-5.3-0.7-6-0.8c-0.7-0.1-7.1,3.2-7.4,3.6
	s1.8,4.5,2.1,4.5c0.3,0,10-4.9,10.2-5.1c0.3-0.1,3.4-1.6,3.5-1.6c0.1,0-7.7-0.4-8.3-0.5c-0.7-0.1-6.4,2.8-6.5,3
	c-0.1,0.2,1,3.2,1.5,3.1c0.5-0.1,9.6-5,9.6-5s-4-0.3-4.5-0.3s-5.4,2.6-5.5,2.6c-0.1,0,0.4,1.5,0.7,1.5c0.3,0,5.7-2.8,5.9-3
	s-1.1-0.1-1.5,0c-0.4,0.2-3.6,1.7-4,1.9" stroke="#4E7661" stroke-width="1.5" stroke-linecap="round" stroke-linejoin="round"/>
</svg>
