<svg width="70" height="70" viewBox="0 0 70 70" fill="none" xmlns="http://www.w3.org/2000/svg">
<path d="M66.4,45.7c-3.5,0-3.5-4-7-4s-3.5,4-7,4s-3.5-4-7-4s-3.5,4-7,4s-3.5-4-7-4s-3.5,4-7,4s-3.5-4-7-4s-3.5,4-7,4
	s-3.5-4-7-4" stroke="#4E7661" stroke-width="1.5" stroke-linecap="round" stroke-linejoin="round"/>
<path d="M52.8,51.9c-3.5,0-3.5-4-7.1-4c-3.5,0-3.5,4-7.1,4c-3.5,0-3.5-4-7.1-4s-3.6,4-7.1,4s-3.6-4-7.1-4" stroke="#4E7661" stroke-width="1.5" stroke-linecap="round" stroke-linejoin="round"/>
<line x1="34.9" y1="13.1" x2="34.9" y2="38" stroke="#4E7661" stroke-width="1.5" stroke-linecap="round" stroke-linejoin="round"/>
<line x1="45.8" y1="19.5" x2="24" y2="31.6" stroke="#4E7661" stroke-width="1.5" stroke-linecap="round" stroke-linejoin="round"/>
<line x1="45.8" y1="31.5" x2="23.9" y2="19.6" stroke="#4E7661" stroke-width="1.5" stroke-linecap="round" stroke-linejoin="round"/>
<polyline points="39.3,14.5 34.9,18.7 30.5,14.5 " stroke="#4E7661" stroke-width="1.5" stroke-linecap="round" stroke-linejoin="round"/>
<polyline points="42.1,16.2 40.7,22.3 46.4,23.9 " stroke="#4E7661" stroke-width="1.5" stroke-linecap="round" stroke-linejoin="round"/>
<polyline points="46.4,27.3 40.4,28.6 42.3,34.6 " stroke="#4E7661" stroke-width="1.5" stroke-linecap="round" stroke-linejoin="round"/>
<polyline points="39.3,36.4 34.9,31.6 30.5,36.4 " stroke="#4E7661" stroke-width="1.5" stroke-linecap="round" stroke-linejoin="round"/>
<polyline points="27.7,34.6 29.3,28.7 23.4,27.3 " stroke="#4E7661" stroke-width="1.5" stroke-linecap="round" stroke-linejoin="round"/>
<polyline points="23.4,23.9 29.3,22.5 27.8,16.2 " stroke="#4E7661" stroke-width="1.5" stroke-linecap="round" stroke-linejoin="round"/>
</svg>
