<svg width="70" height="70" viewBox="0 0 70 70" fill="none" xmlns="http://www.w3.org/2000/svg">
<path d="M4,60c1-0.9,12.8-6.8,15.6-7.1s5.3-1.6,7.2-2.2s1.9-0.8,3.3-1.4c1.3-0.6,6-2.6,6.6-3s0.7-0.9,0.6-1.1
	s-0.7-0.4-1.4-0.2c-0.7,0.2-3.2,1.2-3.7,1.4s2.4-1.9,2.9-2.3s4-3,2.7-4.1c-0.5-0.4-1.1-0.6-1.1-0.6s1-0.7,0.6-1.6
	c-0.5-0.9-1.9,0-1.9,0s0.1-0.5-0.2-1c-0.4-0.4-1.4,0-3,0.7c-1.5,0.6-3.1,1.2-4.5,2c-1.4,0.8-4.8,1.9-4.8,1.9s0.9-1.8,1.6-2.2
	c0.7-0.4,1.6-2.4,1.8-3.3c0.1-0.9-1.2-1.6-1.3-1.1c-0.1,0.6-1.8,1.9-2.4,2.6c-0.6,0.7-2.2,1.8-2.6,2.1c-0.4,0.3-1.9,2.8-2.2,3
	c-0.2,0.2-1.1,2.9-1.1,2.9C15.9,47,2.7,51.7,2,52" stroke="#4E7661" stroke-width="1.5" stroke-linecap="round" stroke-linejoin="round"/>
<path d="M27.8,42.5c0,0,3.6-2.2,4.3-2.6s3.2-2.2,3.2-2.2" stroke="#4E7661" stroke-width="1.5" stroke-linecap="round" stroke-linejoin="round"/>
<path d="M29.5,45.2c0-0.2,1.7-1.5,2.7-2.2c1-0.7,2.1-1.5,3-2.4c0.9-0.9,1.5-1.5,1.5-1.5" stroke="#4E7661" stroke-width="1.5" stroke-linecap="round" stroke-linejoin="round"/>
<path d="M69,10c-1.1,0.7-10.5,4.9-13.2,4.5s-5.5,0.4-7.5,0.6s-2.1,0.4-3.5,0.7c-1.4,0.3-6.4,1.2-7.1,1.5s-0.9,0.7-0.8,1
	s0.6,0.5,1.3,0.5c0.7,0,3.4-0.5,4-0.6c0.6-0.1-2.7,1.3-3.4,1.7c-0.6,0.3-4.6,2.1-3.5,3.4c0.4,0.5,0.9,0.8,0.9,0.8s-1.2,0.5-0.9,1.5
	c0.3,1,1.8,0.4,1.8,0.4s-0.2,0.5,0,1c0.3,0.5,1.4,0.3,3,0c1.6-0.3,3.3-0.5,4.8-1c1.5-0.5,5.1-0.8,5.1-0.8s-1.2,1.5-2,1.8
	c-0.8,0.3-2.1,2-2.5,2.8c-0.3,0.8,0.8,1.8,1,1.3c0.3-0.5,2.2-1.5,2.9-2.1c0.7-0.6,2.6-1.3,3-1.5c0.4-0.3,2.5-2.3,2.8-2.4
	c0.3-0.1,1.7-2.6,1.7-2.6c1.1-1.4,11.3-4.3,12-4.4" stroke="#4E7661" stroke-width="1.5" stroke-linecap="round" stroke-linejoin="round"/>
<path d="M45.5,22.9c0,0-4,1.4-4.8,1.6s-3.6,1.4-3.6,1.4" stroke="#4E7661" stroke-width="1.5" stroke-linecap="round" stroke-linejoin="round"/>
<path d="M44.4,19.8c-0.1,0.2-2,1.1-3.1,1.5c-1.1,0.4-2.4,1-3.5,1.7S36,24.1,36,24.1" stroke="#4E7661" stroke-width="1.5" stroke-linecap="round" stroke-linejoin="round"/>
<path d="M1,29.5c0,0,4.9-0.2,5.9-0.1c1,0.1,1.4,1.1,2.8,1.3c1.4,0.2,5.1-0.4,7.1,0.3c2,0.6,2.8,0.5,3.4,1.1
	c0.6,0.6,1.4,1,1.8,1.1c0.4,0,0.7-1.5-0.9-3.2c-1.7-1.7-3.9-1.5-3.9-1.5s3.5-3,4.5-3.7c1-0.8,2.2-1.8,3-2.7c0.8-0.9,2.2-2.3,2.7-3.5
	c0.5-1.2,0.1-1.9-0.5-1.7c0,0,1.2-1.4,1.4-2.1c0.3-0.7-0.4-1.7-0.6-1.6c-0.3,0.1-1,0.7-1,0.7s0-1.3-0.6-1.5s-1.5,0.6-1.9,0.8
	s-1.2,0.8-1.2,0.8S22.8,13,22.4,13c-0.4,0-2.4,1-3.3,1.6c-0.9,0.6-2.7,1.6-3.5,1.8c-0.8,0.2-5,2.4-6.9,3.8s-2.9,2.8-7.6,3.3" stroke="#4E7661" stroke-width="1.5" stroke-linecap="round" stroke-linejoin="round"/>
<path d="M18.9,23c0,0,1.3-0.9,2.2-1.5s1.9-1,2.4-1.6c0.5-0.5,3.1-2.7,3.5-3.1" stroke="#4E7661" stroke-width="1.5" stroke-linecap="round" stroke-linejoin="round"/>
<path d="M26.7,13.7c0,0-2.4,2.2-3.7,3.3s-3.6,1.8-4,2.2" stroke="#4E7661" stroke-width="1.5" stroke-linecap="round" stroke-linejoin="round"/>
<path d="M23.1,13.9c0,0-2.5,2.2-3.2,2.5s-2.4,1.3-2.8,1.4" stroke="#4E7661" stroke-width="1.5" stroke-linecap="round" stroke-linejoin="round"/>
<path d="M69,38.8c0,0-4.9,0-5.9-0.2c-1-0.1-1.4-1.1-2.8-1.4s-5.1,0.2-7.1-0.5s-2.8-0.6-3.4-1.2
	c-0.6-0.6-1.4-1.1-1.8-1.1s-0.8,1.5,0.8,3.2c1.6,1.8,3.8,1.7,3.8,1.7s-3.6,2.8-4.6,3.6c-1.1,0.7-2.3,1.7-3.1,2.6
	c-0.8,0.9-2.3,2.2-2.8,3.4c-0.5,1.2-0.2,1.9,0.4,1.7c0,0-1.2,1.4-1.5,2.1c-0.3,0.7,0.3,1.7,0.6,1.7c0.3,0,1-0.6,1-0.6
	s-0.1,1.3,0.6,1.5s1.5-0.5,1.9-0.8c0.4-0.3,1.2-0.7,1.2-0.7s0.2,0.9,0.6,0.9s2.4-0.9,3.3-1.5s2.8-1.5,3.5-1.7c0.8-0.2,5.1-2.2,7-3.5
	c1.9-1.3,2.3-2.6,7-3" stroke="#4E7661" stroke-width="1.5" stroke-linecap="round" stroke-linejoin="round"/>
<path d="M50.9,44.6c0,0-1.3,0.9-2.2,1.4c-0.9,0.5-1.9,1-2.5,1.5c-0.6,0.5-3.2,2.6-3.6,3" stroke="#4E7661" stroke-width="1.5" stroke-linecap="round" stroke-linejoin="round"/>
<path d="M42.7,53.5c0,0,2.5-2.2,3.9-3.2c1.4-1,3.6-1.7,4.1-2" stroke="#4E7661" stroke-width="1.5" stroke-linecap="round" stroke-linejoin="round"/>
<path d="M46.3,53.5c0,0,2.5-2.1,3.3-2.4c0.7-0.3,2.4-1.2,2.9-1.3" stroke="#4E7661" stroke-width="1.5" stroke-linecap="round" stroke-linejoin="round"/>
</svg>
