<svg width="70" height="70" viewBox="0 0 70 70" fill="none" xmlns="http://www.w3.org/2000/svg">
<path d="M6,59.4c9-4.9,13.4-8.6,14.6-9.3c3.2-2,3.3-2.6,4.6-2.9c1.5-0.3,4.3-0.4,6.4,0.3c2.5,0.9,3.2,2.3,11.5,3.9
	c1,0.2,3,1.6-0.2,2.7c-0.4,0.1-0.9,0.3-1.2,0.4c-0.7,0.2-1.4,0.1-2.8,0c-1.6-0.1-2.8-0.3-3.5-0.5c-0.9-0.2-2.1-0.5-3.5-0.9" stroke="#4E7661" stroke-width="1.5" stroke-linecap="round" stroke-linejoin="round"/>
<path d="M11.6,67.1c0.4-0.4,12.1-10.5,13-10.8s1.7-0.4,2.5-0.4c1.7,0,3.3,0.3,5,0.8c2.3,0.7,3.9,1.3,5.4,1.7
	c0.4,0.1,1,0.2,1.8,0.5c1,0.3,1.2,0.5,1.7,0.6c1.1,0.2,2-0.4,2.7-0.9c2.4-1.5,4.8-2,6.9-2.4c2.2-0.4,3.3-0.7,3.8-0.6
	c0.9,0,1.9,0.2,2.5-0.4c0.1-0.1,0.4-0.4,0.4-0.9c0-0.8-1.2-1.4-2.1-1.6c-0.5-0.1-1.4,0-3,0.2c-0.1,0-0.1,0-0.4,0
	c-1.2,0.1-2.1,0.2-2.3,0.2c-0.7,0.1-3.2-0.1-5.3,0.1" stroke="#4E7661" stroke-width="1.5" stroke-linecap="round" stroke-linejoin="round"/>
<path d="M50.7,53.2c1.7-1.7,3.2-2.4,4.2-2.9c0.4-0.2,1.2-0.5,1.5-1.2c0.2-0.5,0.1-1.2-0.4-1.6c-0.1-0.1-0.5-0.3-1.8,0.1
	c-1.3,0.4-1.7,0.8-3.2,1.5c-1.1,0.5-1,0.3-2,0.8c-0.7,0.3-2.2,1.1-2.7,1.3c-0.7,0.3-1.7,0.5-3.3,0.2" stroke="#4E7661" stroke-width="1.5" stroke-linecap="round" stroke-linejoin="round"/>
<path d="M54.3,47.6c0.1-0.3,0.2-0.7,0-1.1C53.9,46,52.9,46,52.5,46c-0.6,0-0.7,0.2-1.8,0.6c-1.4,0.5-1.5,0.3-2.7,0.8
	c-1,0.4-0.9,0.5-2,1c-0.9,0.4-1.6,0.6-3,0.9c-0.8,0.2-2.8,0.8-4,1" stroke="#4E7661" stroke-width="1.5" stroke-linecap="round" stroke-linejoin="round"/>
<path d="M47.1,47.8c0-0.1,0.3-0.6,0.1-1.1c-0.2-0.4-0.6-0.5-0.8-0.6c-0.6-0.2-1.1-0.1-1.7,0c-1.6,0.4-2.7,0.8-2.7,0.8
	c-1.1,0.4-1.7,0.7-2.2,0.9c-0.9,0.4-2.3,0.9-4.2,1.2" stroke="#4E7661" stroke-width="1.5" stroke-linecap="round" stroke-linejoin="round"/>
<path d="M63,8.7c0,0-2.2,15.8-1.3,18.9c0.9,3,3.6,8.4,1.7,11c-1.8,2.6-2.5,3-7.9,2.7S29.6,39.6,27,39.4
	c-2.7-0.2-4.1-1.2-5.4-3s0.2-4.4,1.2-4.2c0.9,0.3,4.8,1.1,9.2,0.7c4.4-0.4,12.7-4.3,14.9-8.7s3-21.4,3-21.4" stroke="#4E7661" stroke-width="1.5" stroke-linecap="round" stroke-linejoin="round"/>
<path d="M50.1,32.2c0,0,5.3,1.3,6.6-1.2s0.4-6.2,0.4-6.2" stroke="#4E7661" stroke-width="1.5" stroke-linecap="round" stroke-linejoin="round"/>
</svg>
