<svg width="70" height="70" viewBox="0 0 70 70" fill="none" xmlns="http://www.w3.org/2000/svg">
<path d="M31.5,38.6c-2.1,0-2.1-4-4.2-4s-2.1,4-4.2,4s-2.1-4-4.2-4s-2.1,4-4.2,4" stroke="#4E7661" stroke-width="1.5" stroke-linecap="round" stroke-linejoin="round"/>
<path d="M39.5,43.6c-2.1,0-2.1-4-4.2-4c-2.1,0-2.1,4-4.2,4s-2.1-4-4.2-4s-2.1,4-4.2,4" stroke="#4E7661" stroke-width="1.5" stroke-linecap="round" stroke-linejoin="round"/>
<path d="M51.4,26.9c-2.6,0.6,1.7-9-1.2-8.3" stroke="#4E7661" stroke-width="1.5" stroke-linecap="round" stroke-linejoin="round"/>
<path d="M57,28c-2.6,0.6,1.7-9-1.2-8.3" stroke="#4E7661" stroke-width="1.5" stroke-linecap="round" stroke-linejoin="round"/>
<path d="M35,24.8c2.5,1-0.4-9.2,2.4-8" stroke="#4E7661" stroke-width="1.5" stroke-linecap="round" stroke-linejoin="round"/>
<path d="M40.5,23.2c2.5,1-0.4-9.2,2.4-8" stroke="#4E7661" stroke-width="1.5" stroke-linecap="round" stroke-linejoin="round"/>
<path d="M48,22.6" stroke="#4E7661" stroke-width="1.5" stroke-linecap="round" stroke-linejoin="round"/>
<path d="M35.2,49.9L6.9,43.7c-2-0.4-2.5-3.1-0.8-4.3l29.7-19.2c0.5-0.3,1-0.4,1.5-0.4l25.6,2.7c2.1,0.2,2.9,2.8,1.3,4.1
	l-27,22.8C36.7,49.8,35.9,50,35.2,49.9z" stroke="#4E7661" stroke-width="1.5" stroke-linecap="round" stroke-linejoin="round"/>
<path d="M5,41.5v4.6c0,1,0.7,2,1.9,2.3l29.4,6.4c0.7,0.2,1.5,0,2-0.5l25.9-23c0.6-0.5,0.8-1.2,0.8-1.8
	c0.1-0.8,0-4.7,0-4.7" stroke="#4E7661" stroke-width="1.5" stroke-linecap="round" stroke-linejoin="round"/>
<line x1="53.6" y1="35.6" x2="20.8" y2="29.9" stroke="#4E7661" stroke-width="1.5" stroke-linecap="round" stroke-linejoin="round"/>
<line x1="55.8" y1="33.6" x2="23.8" y2="28.1" stroke="#4E7661" stroke-width="1.5" stroke-linecap="round" stroke-linejoin="round"/>
</svg>
