<svg width="70" height="70" viewBox="0 0 70 70" fill="none" xmlns="http://www.w3.org/2000/svg">
<path d="M64,31c-3.2,0-3.2-4-6.4-4s-3.2,4-6.4,4s-3.2-4-6.4-4s-3.2,4-6.4,4s-3.2-4-6.4-4s-3.2,4-6.4,4s-3.2-4-6.4-4
	s-3.2,4-6.5,4S9.2,27,6,27" stroke="#4E7661" stroke-width="1.5" stroke-linecap="round" stroke-linejoin="round"/>
<path d="M54,63.4c0,0-1.8-3-7-3.9s-7.8,0.7-10.8,1.9S23.9,63.6,20.9,57" stroke="#4E7661" stroke-width="1.5" stroke-linecap="round" stroke-linejoin="round"/>
<polyline points="20,61.3 24.6,60.9 24.1,56.2 " stroke="#4E7661" stroke-width="1.5" stroke-linecap="round" stroke-linejoin="round"/>
<polyline points="26.4,64.8 29.7,62.2 27.7,58.8 " stroke="#4E7661" stroke-width="1.5" stroke-linecap="round" stroke-linejoin="round"/>
<polyline points="36,64.5 37.3,61 33.6,59.1 " stroke="#4E7661" stroke-width="1.5" stroke-linecap="round" stroke-linejoin="round"/>
<polyline points="42.3,62.3 44.7,59.3 42.3,55.7 " stroke="#4E7661" stroke-width="1.5" stroke-linecap="round" stroke-linejoin="round"/>
<polyline points="47.2,63.3 52.3,61.7 50.8,57.4 " stroke="#4E7661" stroke-width="1.5" stroke-linecap="round" stroke-linejoin="round"/>
<path d="M16.4,52.8c0.8-2.6,5.2-7,11-7.7c7.2-0.8,13.6,3.4,19.3,7.1" stroke="#4E7661" stroke-width="1.5" stroke-linecap="round" stroke-linejoin="round"/>
<path d="M19.8,48.3c0,0-4.8-0.5-6.2,3.5s-0.7,6.3-0.7,6.3s4.8-0.2,6-3C20.2,52.2,19.8,48.3,19.8,48.3z" stroke="#4E7661" stroke-width="1.5" stroke-linecap="round" stroke-linejoin="round"/>
<path d="M25.4,45.5c0,0-4.1-0.8-5.5-4.3s-1.2-6.5-1.2-6.5s4.2-0.3,6.2,4S25.4,45.5,25.4,45.5z" stroke="#4E7661" stroke-width="1.5" stroke-linecap="round" stroke-linejoin="round"/>
<path d="M25.4,45.5c0,0-3.9-4.5-3.6-6.7" stroke="#4E7661" stroke-width="1.5" stroke-linecap="round" stroke-linejoin="round"/>
<path d="M31.1,45.1c0,0-3.2,0.4-3.9,3.4c-0.7,3,0.4,5.2,0.4,5.2s3.3-0.9,3.9-3.4C32.1,47.9,31.1,45.1,31.1,45.1z" stroke="#4E7661" stroke-width="1.5" stroke-linecap="round" stroke-linejoin="round"/>
<path d="M31.1,45.1c0,0-1.6,2.3-1.5,3.2" stroke="#4E7661" stroke-width="1.5" stroke-linecap="round" stroke-linejoin="round"/>
<path d="M36,46.2c0,0-3.7-5.6-3.9-8" stroke="#4E7661" stroke-width="1.5" stroke-linecap="round" stroke-linejoin="round"/>
<path d="M33.5,42c0,0-3.9-1.2-4-4.4s0.9-4,0.9-4s3.1,0.8,3.9,3.7C35.2,40.3,33.5,42,33.5,42z" stroke="#4E7661" stroke-width="1.5" stroke-linecap="round" stroke-linejoin="round"/>
<path d="M40.1,16c0,0-4.1-0.8-5.6-4.3c-1.4-3.5-1.2-6.5-1.2-6.5s4.2-0.3,6.2,4S40.1,16,40.1,16z" stroke="#4E7661" stroke-width="1.5" stroke-linecap="round" stroke-linejoin="round"/>
<path d="M40.1,16c0,0-1.9-4.3-3.6-6.7" stroke="#4E7661" stroke-width="1.5" stroke-linecap="round" stroke-linejoin="round"/>
<path d="M21.9,23.4c0,0,1.1-4,4.8-5.2c3.6-1.2,6.5-0.6,6.5-0.6s-0.1,4.2-4.5,5.8C24.4,25,21.9,23.4,21.9,23.4z" stroke="#4E7661" stroke-width="1.5" stroke-linecap="round" stroke-linejoin="round"/>
<path d="M21.9,23.4c0,0,2.5-2.4,7-3" stroke="#4E7661" stroke-width="1.5" stroke-linecap="round" stroke-linejoin="round"/>
</svg>
