<svg width="70" height="70" viewBox="0 0 70 70" fill="none" xmlns="http://www.w3.org/2000/svg">
<path d="M34,41.9c-7.9,0-15.7,0-23.7,0c0.6-6.1,3.3-10.9,8.3-14.1c6.6-4.3,13.5-4.5,20.3-0.5c1.7,1,3.2,2.2,4.4,3.5
		c2,2.2,3.4,4.9,4.2,8" stroke="#4E7661" stroke-width="1.5" stroke-linecap="round" stroke-linejoin="round"/>
	<path d="M34.6,44.4c-8.3,0-16.5,0-24.8,0c0,0-0.4,0-0.9,0c-0.2,0-1.8-0.3-1.9-1c-0.1-0.5,0.4-0.9,0.7-1.1" stroke="#4E7661" stroke-width="1.5" stroke-linecap="round" stroke-linejoin="round"/>
	<line x1="29.3" y1="24.4" x2="29.3" y2="22.6" stroke="#4E7661" stroke-width="1.5" stroke-linecap="round" stroke-linejoin="round"/>
<path d="M58.3,47.4H38.1c-1.6,0-3-1.1-3.4-2.7l-1.4-6h29.8l-1.4,6C61.3,46.3,59.9,47.4,58.3,47.4z" stroke="#4E7661" stroke-width="1.5" stroke-linecap="round" stroke-linejoin="round"/>
<path d="M54.2,33.5c-2.4,0.6,1.6-8.4-1.1-7.8" stroke="#4E7661" stroke-width="1.5" stroke-linecap="round" stroke-linejoin="round"/>
<path d="M42.6,35.7c2.3,0.9-0.3-8.6,2.3-7.5" stroke="#4E7661" stroke-width="1.5" stroke-linecap="round" stroke-linejoin="round"/>
<path d="M47.6,30.8c2.3,0.9-0.3-8.6,2.3-7.5" stroke="#4E7661" stroke-width="1.5" stroke-linecap="round" stroke-linejoin="round"/>
</svg>
