<svg width="70" height="70" viewBox="0 0 70 70" fill="none" xmlns="http://www.w3.org/2000/svg">
<path d="M27.4,45.8" stroke="#4E7661" stroke-width="1.5" stroke-linecap="round" stroke-linejoin="round"/>
<path d="M47.1,45.8" stroke="#4E7661" stroke-width="1.5" stroke-linecap="round" stroke-linejoin="round"/>
<path d="M45.1,28.8c0,5.7-4.7,14.8-10.4,14.8s-10.4-9.1-10.4-14.8S29,18.6,34.7,18.6S45.1,23.2,45.1,28.8z" stroke="#4E7661" stroke-width="1.5" stroke-linecap="round" stroke-linejoin="round"/>
<path d="M36.2,28.2c0.7,2.5-1.5,5.8-1.5,6.1c0,0.3-1.4-1.8-1.9-3.3c-0.2-0.5-0.9-3.7,0.8-4.7c1.1-0.6,3.1-0.7,4,1.9
	s-2.5,7.9-2.8,7.7c-0.3-0.2-4.1-3.2-3.5-8.2c0.5-4.3,6.5-4,7.5-0.2c0.8,3-1.7,7.1-3.4,9.6c-0.8,1.1-3.2-2.4-3.2-2.4
	s-1.6-2.3-2.3-5.5c-0.6-3.2,1.9-5.7,4.7-6c2.8-0.4,3.3,1.2,3.8,1.9c0.8,1.1,1.3,2.7,1.4,3.9c0.1,1.2-0.5,4.7-2,6.2
	c-1.5,1.5-1.6,3.5-2.7,3.5c-1.1,0-2.2-0.6-3.5-2.4c-1.4-1.8-2-3-2.9-6.5s1-4.3,3-6.5s4.9-1,6.3-0.3c1.7,0.8,3.8,4.7,3.2,7.2
	s-0.2,3-2.5,6.1c-2.3,3.1-2.2,3.9-4.1,3.6c-1.9-0.3-4.1-1.9-5.2-4.5c-1.1-2.5-3.9-6.8-0.6-10.7s4.1-4.3,6.6-3.9
	c3.9,0.6,6.9,3.8,6.9,7.8c0,2.4-1.1,5.7-2.7,8.2c-1.4,2.7-3.4,4.2-5.2,4.2c-1.7,0-3.7-1.6-5.4-4.2c-1.6-2.6-2.7-5.8-2.7-8.2
	c0-4,3.1-7.4,7.1-7.8" stroke="#4E7661" stroke-width="1.5" stroke-linecap="round" stroke-linejoin="round"/>
<path d="M40.7,20l6.2-0.2c0,0,1.5-5.6-3.4-9.6c-5.7-4.5-14.7-1.8-19.2,3.9s0,14.4,0,14.4" stroke="#4E7661" stroke-width="1.5" stroke-linecap="round" stroke-linejoin="round"/>
<path d="M45.3,30.8c0,0,5.2-4.8,1.6-11.1" stroke="#4E7661" stroke-width="1.5" stroke-linecap="round" stroke-linejoin="round"/>
<path d="M22.8,16.7c0,0-2.3-6.5,4.6-10.2S38.5,8,38.5,8" stroke="#4E7661" stroke-width="1.5" stroke-linecap="round" stroke-linejoin="round"/>
<path d="M32.3,43.2c0,0,0.2,5.6-1.4,6.4c-1.6,0.7-13.7,3-13.9,8.8c0,0,2.3,6.4,17.6,6.4S53,58.4,53,58.4
	c-0.2-5.8-13-8.1-14.6-8.8S37,43.2,37,43.2" stroke="#4E7661" stroke-width="1.5" stroke-linecap="round" stroke-linejoin="round"/>
<path d="M36.1,28c-0.6-1.3-2.2-0.7-2.5-0.3c-0.3,0.5-0.1,2.1,0.5,3.4c0.5,1.3,0,2.2,0.9,0.6s0.4-3.4,0-3.5
	c-0.4-0.2-0.3,1.1-0.3,1.7" stroke="#4E7661" stroke-width="1.5" stroke-linecap="round" stroke-linejoin="round"/>
</svg>
