<svg width="70" height="70" viewBox="0 0 70 70" fill="none" xmlns="http://www.w3.org/2000/svg">
<path d="M13.5,14.1c0,0,11.1,21.8,11.8,22.2c0.7,0.4,10.4,2.9,11.4,3.2s3.2,1.6,4.1,1.9c0.9,0.3,6,1.5,7.7,1.7
	s4.5,0.5,5.3,0.5s0.6,1.9-1.1,2.1C51,45.9,43.6,45,42.2,45c-1.5,0-5-0.6-6.4-0.5S33.4,45,33.4,45s1.3,0.6,3.2,0.9
	c1.9,0.3,3.3,1,4.4,1.6c1,0.6,1.6,2.1,0.8,2.3s-4.2-0.1-5,0s-4.4-1-5.4-1c-1-0.1-3.8-0.7-4.6-0.7S21.7,48,19.9,44s-3.3-7.2-5.8-10.6
	s-7.6-10-7.6-10" stroke="#4E7661" stroke-width="1.5" stroke-linecap="round" stroke-linejoin="round"/>
<path d="M3,37.5c0,0,3.3,2.2,15.6,3.9" stroke="#4E7661" stroke-width="1.5" stroke-linecap="round" stroke-linejoin="round"/>
<path d="M43.3,42.1c0,0,14.9-2,23.7-5.5" stroke="#4E7661" stroke-width="1.5" stroke-linecap="round" stroke-linejoin="round"/>
</svg>
