<svg width="70" height="70" viewBox="0 0 70 70" fill="none" xmlns="http://www.w3.org/2000/svg">
<path d="M51.4,40.4H24.6c-0.6,0-1.2-0.4-1.3-1L20,23c-0.2-0.8,0.5-1.6,1.3-1.6h26.9c0.6,0,1.2,0.4,1.3,1l3.3,16.4
	C52.9,39.6,52.3,40.4,51.4,40.4z" stroke="#4E7661" stroke-width="1.5" stroke-linecap="round" stroke-linejoin="round"/>
<path d="M20.1,22.4l-3.9,12.9c-0.1,0.8,0.5,1.5,1.3,1.5h5.3" stroke="#4E7661" stroke-width="1.5" stroke-linecap="round" stroke-linejoin="round"/>
<line x1="27.2" y1="30.9" x2="45.5" y2="30.9" stroke="#4E7661" stroke-width="1.5" stroke-linecap="round" stroke-linejoin="round"/>
<path d="M50.2,26.5c10,2,16.7,5.9,16.7,10.4c0,6.5-14.3,11.8-32,11.8S3,43.3,3,36.8c0-4.3,6.3-8.1,15.7-10.2" stroke="#4E7661" stroke-width="1.5" stroke-linecap="round" stroke-linejoin="round"/>
</svg>
