<svg width="70" height="70" viewBox="0 0 70 70" fill="none" xmlns="http://www.w3.org/2000/svg">
<line x1="22.8" y1="39.8" x2="7.9" y2="39.8" stroke="#4E7661" stroke-width="1.5" stroke-linecap="round" stroke-linejoin="round"/>
<line x1="62.1" y1="39.8" x2="46.8" y2="39.8" stroke="#4E7661" stroke-width="1.5" stroke-linecap="round" stroke-linejoin="round"/>
<path d="M35,22.4L35,22.4c-4.3,0-7.8,3.5-7.8,7.8v22.6c0,1.3,1,2.3,2.3,2.3h11c1.3,0,2.3-1,2.3-2.3V30.2
C42.8,25.8,39.3,22.4,35,22.4z" stroke="#4E7661" stroke-width="1.5" stroke-linecap="round" stroke-linejoin="round"/>
<polygon points="37.9,19.7 37.9,15 32.6,15 32.6,19.7 31.7,19.7 31.7,22.4 38.4,22.4 38.4,19.7 	" stroke="#4E7661" stroke-width="1.5" stroke-linecap="round" stroke-linejoin="round"/>
<line x1="29.5" y1="30.3" x2="29.5" y2="45.5" stroke="#4E7661" stroke-width="1.5" stroke-linecap="round" stroke-linejoin="round"/>
</svg>
