<svg width="70" height="70" viewBox="0 0 70 70" fill="none" xmlns="http://www.w3.org/2000/svg">
<polyline points="27.4,30.7 7,37.1 40,41.6 61,32.3 47.1,31.3" stroke="#4E7661" stroke-width="1.5" stroke-linecap="round" stroke-linejoin="round"/>
<path d="M40.1,31.2c-2.1,1.9-5,3.3-7.2,2.3c-3.2-1.5-3.4-7.8-1.9-10.9c0.5-1,1.1-1.7,1.9-2.3" stroke="#4E7661" stroke-width="1.5" stroke-linecap="round" stroke-linejoin="round"/>
<path d="M39.8,31.1L39.8,31.1c0,0.1,3.9,0.5,5.9-2.8c1.8-3,0.9-6-2-8.1c-1.5-1.2-6-2.2-7.3-4.4
	c-2.4-3.8-5.7,1.8-3.5,4.4c0.4,0.4,0.9,0.8,1.6,1.2C38.1,23.3,40.2,27.1,39.8,31.1z" stroke="#4E7661" stroke-width="1.5" stroke-linecap="round" stroke-linejoin="round"/>
<path d="M36.4,15c0,0,2.5-1.6,6.3,1.2c6.1,4.3,3.5,11,3.5,11" stroke="#4E7661" stroke-width="1.5" stroke-linecap="round" stroke-linejoin="round"/>
<path d="M42.2,33.5c-0.2,2-5.2,3.3-8.9,3s-5-2.6-4.5-3.6" stroke="#4E7661" stroke-width="1.5" stroke-linecap="round" stroke-linejoin="round"/>
<line x1="7" y1="37.1" x2="7" y2="49.8" stroke="#4E7661" stroke-width="1.5" stroke-linecap="round" stroke-linejoin="round"/>
<line x1="39.9" y1="41.6" x2="39.9" y2="57.4" stroke="#4E7661" stroke-width="1.5" stroke-linecap="round" stroke-linejoin="round"/>
<line x1="23.4" y1="40.2" x2="23.4" y2="57.4" stroke="#4E7661" stroke-width="1.5" stroke-linecap="round" stroke-linejoin="round"/>
<line x1="61" y1="32.9" x2="61" y2="45.6" stroke="#4E7661" stroke-width="1.5" stroke-linecap="round" stroke-linejoin="round"/>
<path d="M16.5,28c-3.4,0,4.8-10.8,1-10.8" stroke="#4E7661" stroke-width="1.5" stroke-linecap="round" stroke-linejoin="round"/>
<path d="M21.4,25.9c-3.4,0,4.8-10.8,1-10.8" stroke="#4E7661" stroke-width="1.5" stroke-linecap="round" stroke-linejoin="round"/>
<path d="M58.1,26.7c3.4,0-4.8-10.8-1-10.8" stroke="#4E7661" stroke-width="1.5" stroke-linecap="round" stroke-linejoin="round"/>
<path d="M62.2,23.4c3.4,0-4.8-10.8-1-10.8" stroke="#4E7661" stroke-width="1.5" stroke-linecap="round" stroke-linejoin="round"/>
</svg>
