<svg width="70" height="70" viewBox="0 0 70 70" fill="none" xmlns="http://www.w3.org/2000/svg">
<path d="M52,49.3c-3.4,0-3.4-4.5-6.8-4.5c-3.4,0-3.4,4.5-6.8,4.5c-3.4,0-3.4-4.5-6.8-4.5c-3.4,0-3.4,4.5-6.8,4.5
	s-3.4-4.5-6.8-4.5" stroke="#4E7661" stroke-width="1.5" stroke-linecap="round" stroke-linejoin="round"/>
<path d="M65.1,41.5c-3.4,0-3.4-4.5-6.6-4.5c-3.4,0-3.4,4.5-6.6,4.5c-3.3,0-3.4-4.5-6.6-4.5c-3.4,0-3.4,4.5-6.6,4.5
	c-3.4,0-3.4-4.5-6.7-4.5s-3.4,4.5-6.6,4.5c-3.4,0-3.4-4.5-6.7-4.5s-3.4,4.5-6.7,4.5S8.4,37,5,37" stroke="#4E7661" stroke-width="1.5" stroke-linecap="round" stroke-linejoin="round"/>
<path d="M12.1,40.5c0.3-0.2,1.3-2.1,1.8-3.6c0.3-1.5-0.2-2-0.9-5.5c-0.4-2.7-0.2-3.4,0.1-3.8c0.4-0.6,1.1-1,2.1-1.1
	c0.7,0,1.2,0.2,1.6,0.3c0.2,0,0.7,0,1-0.2c0.4-0.3,0.4-0.7,0.9-1c0.3-0.2,1-0.4,1.5-0.1c0.6,0.3,0.4,1.5,0.6,1.5
	c0.2,0,0-1.3,0.7-1.7c0.2-0.1,0.4,0,2.2,0.3c0.4,0.1,0.8,0.1,1.1,0c0.2-0.1,0.3-0.3,0.6-0.8c0.4-0.7,0.3-0.8,0.6-1.2
	c0.1-0.1,0.6-0.8,1.2-0.8c0.4,0,0.8,0.3,1.1,0.6c1.2,1.2,1.9,1.9,2.4,2.4c1,1,1.7,1.7,2.8,2c0.3,0.1,1.1,0.3,1.9,0
	c0.4-0.2,0.6-0.4,0.9-0.6c0.8-0.4,1.6-0.2,2.7,0.1c2.5,0.7,3.8,0.9,3.8,1c2.4,0.9,3.9,2.2,4.5,2.6c0.1,0.1,1.2,1,2,2
	c1.5,1.7,2.1,3.6,2.1,3.6c0.2,1.5,0.4,2.8,0.7,4.3" stroke="#4E7661" stroke-width="1.5" stroke-linecap="round" stroke-linejoin="round"/>
</svg>
