<svg width="70" height="70" viewBox="0 0 70 70" fill="none" xmlns="http://www.w3.org/2000/svg">
<path d="M19.2,46.2c-1.2-2.4-1.9-5.2-1.9-8.1v-8.2c0-1.3,1.1-2.4,2.4-2.4h31.5c1.3,0,2.4,1.1,2.4,2.4v8.2
	c0,10-8.1,18.2-18.2,18.2h0c-1.5,0-3-0.2-4.5-0.5" stroke="#4E7661" stroke-width="1.5" stroke-linecap="round" stroke-linejoin="round"/>
<path d="M53.8,29.2h2.9c3.2,0,5.7,2.6,5.7,5.7s-2.6,5.7-5.7,5.7h-2.9" stroke="#4E7661" stroke-width="1.5" stroke-linecap="round" stroke-linejoin="round"/>
<line x1="17.3" y1="56.3" x2="53.7" y2="56.3" stroke="#4E7661" stroke-width="1.5" stroke-linecap="round" stroke-linejoin="round"/>
<path d="M29.9,20.9c-2.9,0,4.1-9.1,0.8-9.1" stroke="#4E7661" stroke-width="1.5" stroke-linecap="round" stroke-linejoin="round"/>
<path d="M35.4,19.1c-2.9,0,4.1-9.1,0.8-9.1" stroke="#4E7661" stroke-width="1.5" stroke-linecap="round" stroke-linejoin="round"/>
<path d="M40.1,23.6c-2.9,0,4.1-9.1,0.8-9.1" stroke="#4E7661" stroke-width="1.5" stroke-linecap="round" stroke-linejoin="round"/>
<ellipse transform="matrix(0.8779 -0.4788 0.4788 0.8779 -19.6448 18.5015)" cx="26.5" cy="47.8" rx="6.3" ry="9.1" stroke="#4E7661" stroke-width="1.5" stroke-linecap="round" stroke-linejoin="round"/>
<path d="M22.5,39.6c0,3.9,1,7.1,3.1,8.9c3.4,3,4.8,4,5.2,7.2" stroke="#4E7661" stroke-width="1.5" stroke-linecap="round" stroke-linejoin="round"/>
</svg>
