<svg width="70" height="70" viewBox="0 0 70 70" fill="none" xmlns="http://www.w3.org/2000/svg">
<path d="M22.9,59.1c0,0-1.7-10.4-5.7-15.4S3.3,27.6,4,24.2s17.1-6.7,17.1-6.7" stroke="#4E7661" stroke-width="1.5" stroke-linecap="round" stroke-linejoin="round"/>
<path d="M47.1,59.1c0,0,1.7-10.4,5.7-15.4S66.7,27.6,66,24.2s-17.9-6.6-17.9-6.6" stroke="#4E7661" stroke-width="1.5" stroke-linecap="round" stroke-linejoin="round"/>
<path d="M29.5,13.9c0,0-4.2-2.4-5.7,2.7s2.7,6.7,2.7,6.7S30.2,20.6,29.5,13.9z" stroke="#4E7661" stroke-width="1.5" stroke-linecap="round" stroke-linejoin="round"/>
<path d="M29.5,13.9c0,0,2.1-3,7.8-3s7.4,4.1,7.4,4.1s-0.1,1.9-5.2,5.9s-6.1,3.2-5.8,5.4s-0.6,3.9-3.1,3.9
	s-4.1-6.8-4.1-6.8" stroke="#4E7661" stroke-width="1.5" stroke-linecap="round" stroke-linejoin="round"/>
<path d="M22.2,23.2c0,0-8.9,3.5-9.3,3.8s5.7,6.8,5.7,6.8s6.1,2.9,6.6,3.5s5-0.9,5.6-1.6c0.6-0.7-0.2-5.6-0.2-5.6" stroke="#4E7661" stroke-width="1.5" stroke-linecap="round" stroke-linejoin="round"/>
<path d="M44.4,15.6c0,0,1.9,3.9,1.6,5.9c-0.2,2,1,4.5,1,4.5s-2.5,3.6-2.3,5c0.2,1.4-5.7,1.2-5.7,1.2s-0.5,2.9,0,3.4
	s6,2,6.9,2.1c0,0,4.7-2.8,6-3.2c1.3-0.5,5.4-7.4,5.4-7.4l-8.5-4" stroke="#4E7661" stroke-width="1.5" stroke-linecap="round" stroke-linejoin="round"/>
<ellipse cx="35" cy="47.9" rx="3.1" ry="1.9" stroke="#4E7661" stroke-width="1.5" stroke-linecap="round" stroke-linejoin="round"/>
<ellipse cx="35" cy="40.4" rx="2.8" ry="1.7" stroke="#4E7661" stroke-width="1.5" stroke-linecap="round" stroke-linejoin="round"/>
<ellipse cx="35" cy="56.8" rx="3.7" ry="2.3" stroke="#4E7661" stroke-width="1.5" stroke-linecap="round" stroke-linejoin="round"/>
</svg>
