<svg width="70" height="70" viewBox="0 0 70 70" fill="none" xmlns="http://www.w3.org/2000/svg">
<path d="M47.6,50.5c3.2,0.6,4.9,1.4,4.9,2.3c0,1.9-7.8,3.4-17.5,3.4s-17.5-1.5-17.5-3.4c0-1,2.2-1.9,5.8-2.5" stroke="#4E7661" stroke-width="1.5" stroke-linecap="round" stroke-linejoin="round"/>
<path d="M52.5,52.8c0,5.9-7.8,13.1-17.5,13.1s-17.5-7.1-17.5-13.1" stroke="#4E7661" stroke-width="1.5" stroke-linecap="round" stroke-linejoin="round"/>
<path d="M19.3,54.3c0,0,1.1-3.6,3.9-4s2-0.9,3.9-2.2s3.7-2.2,5-2.2s2.8-1.5,4.2-0.8S39.2,47,41,47s2.2,0.2,3.5,1.1
	c1.3,1,3,2.3,3,2.3l3.2,3.8" stroke="#4E7661" stroke-width="1.5" stroke-linecap="round" stroke-linejoin="round"/>
<path d="M25.4,52.2c2.9-0.9,5.7,0.5,6.1,0.6" stroke="#4E7661" stroke-width="1.5" stroke-linecap="round" stroke-linejoin="round"/>
<path d="M41.8,47.1c-3.5,0.2-5.1,3.1-6.4,2.8" stroke="#4E7661" stroke-width="1.5" stroke-linecap="round" stroke-linejoin="round"/>
<path d="M27.4,47.9c0,0,2.3-0.1,4.2-0.2c1.9-0.1,3.5-1,3.5-1" stroke="#4E7661" stroke-width="1.5" stroke-linecap="round" stroke-linejoin="round"/>
<path d="M46.9,55.3c0,0-0.5-1.5-2.1-1.6s-3.1,0.5-3.6,0s-2.3-1.1-3-0.9" stroke="#4E7661" stroke-width="1.5" stroke-linecap="round" stroke-linejoin="round"/>
<path d="M28.9,38" stroke="#4E7661" stroke-width="1.5" stroke-linecap="round" stroke-linejoin="round"/>
<path d="M45.4,38" stroke="#4E7661" stroke-width="1.5" stroke-linecap="round" stroke-linejoin="round"/>
<path d="M43.7,23.8c0,4.7-3.9,12.3-8.7,12.3s-8.7-7.6-8.7-12.3s3.9-8.5,8.7-8.5S43.7,19.1,43.7,23.8z" stroke="#4E7661" stroke-width="1.5" stroke-linecap="round" stroke-linejoin="round"/>
<path d="M40.1,16.4l5.2-0.2c0,0,1.2-4.7-2.9-8c-4.7-3.8-12.2-1.5-16,3.3s0,12,0,12" stroke="#4E7661" stroke-width="1.5" stroke-linecap="round" stroke-linejoin="round"/>
<path d="M43.9,25.4c0,0,4.4-4,1.3-9.2" stroke="#4E7661" stroke-width="1.5" stroke-linecap="round" stroke-linejoin="round"/>
<path d="M25.1,13.7c0,0-1.9-5.4,3.8-8.5s9.3,1.2,9.3,1.2" stroke="#4E7661" stroke-width="1.5" stroke-linecap="round" stroke-linejoin="round"/>
<path d="M20.3,48.4c0.2-4.8,10.3-6.7,11.6-7.3s1.1-5.3,1.1-5.3" stroke="#4E7661" stroke-width="1.5" stroke-linecap="round" stroke-linejoin="round"/>
<path d="M37,35.8c0,0-0.2,4.7,1.1,5.3s12,2.5,12.2,7.3" stroke="#4E7661" stroke-width="1.5" stroke-linecap="round" stroke-linejoin="round"/>
</svg>
