<svg width="70" height="70" viewBox="0 0 70 70" fill="none" xmlns="http://www.w3.org/2000/svg">
<path d="M34.7,46.7L34.7,46.7c-7.9,0-14.3-6.4-14.3-14.3l1.4-12.8c0.1-0.9,0.8-1.5,1.7-1.5l22.4,0
	c0.9,0,1.6,0.6,1.7,1.5L49,32.3C49,40.3,42.6,46.7,34.7,46.7z" stroke="#4E7661" stroke-width="1.5" stroke-linecap="round" stroke-linejoin="round"/>
<line x1="34.7" y1="46.7" x2="34.7" y2="59.4" stroke="#4E7661" stroke-width="1.5" stroke-linecap="round" stroke-linejoin="round"/>
<line x1="27.9" y1="59.4" x2="41.4" y2="59.4" stroke="#4E7661" stroke-width="1.5" stroke-linecap="round" stroke-linejoin="round"/>
<path d="M45.5,26.7l0.6,5.8c0,3-1.2,5.8-3.4,8c-2.2,2.2-5.1,3.4-8.1,3.4c-2.1,0-4.2-0.6-5.9-1.6
	c-3.4-2.3-5.7-5.5-5.4-9.9c0-0.1,0-0.3,0-0.4c0.1-0.5,5.2-0.4,11.3-3.6C39.9,25.6,45.5,26.7,45.5,26.7z" stroke="#4E7661" stroke-width="1.5" stroke-linecap="round" stroke-linejoin="round"/>
<path d="M21.1,25.3C17.7,24.7,15,21.6,15,18c0-4.1,3.3-7.4,7.4-7.4s7.4,3.3,7.4,7.4" stroke="#4E7661" stroke-width="1.5" stroke-linecap="round" stroke-linejoin="round"/>
<path d="M38.8,32.1l7.1-19.7c0.5-1.3,1.9-2,3.3-1.6l5.9,2.1" stroke="#4E7661" stroke-width="1.5" stroke-linecap="round" stroke-linejoin="round"/>
</svg>
