<svg width="70" height="70" viewBox="0 0 70 70" fill="none" xmlns="http://www.w3.org/2000/svg">
<path d="M64,33.5c-3.2,0-3.2-4-6.4-4s-3.2,4-6.4,4s-3.2-4-6.4-4s-3.2,4-6.4,4s-3.2-4-6.4-4s-3.2,4-6.4,4s-3.2-4-6.4-4
	s-3.2,4-6.4,4s-3.2-4-6.4-4" stroke="#4E7661" stroke-width="1.5" stroke-linecap="round" stroke-linejoin="round"/>
<path d="M35.5,47.3c0,0-2.1-4.5,1.4-7C40.6,37.7,44,41,44,41s3.1-2.5,6.2-0.2c3.2,2.3,1.3,6.3,1.3,6.3s3.7,1.7,2.7,5.3
	c-1.2,4-5.5,2.6-5.5,2.6s0.1,4.7-3.8,5c-4,0.3-4.9-3.4-4.9-3.4s-4.1,1.6-6.1-2.1C31.4,49.7,35.5,47.3,35.5,47.3z" stroke="#4E7661" stroke-width="1.5" stroke-linecap="round" stroke-linejoin="round"/>
<circle cx="43.6" cy="49" r="4.5" stroke="#4E7661" stroke-width="1.5" stroke-linecap="round" stroke-linejoin="round"/>
<circle cx="22.6" cy="58.4" r="3.2" stroke="#4E7661" stroke-width="1.5" stroke-linecap="round" stroke-linejoin="round"/>
<circle cx="12.4" cy="43.9" r="3.2" stroke="#4E7661" stroke-width="1.5" stroke-linecap="round" stroke-linejoin="round"/>
<circle cx="35" cy="18" r="3.2" stroke="#4E7661" stroke-width="1.5" stroke-linecap="round" stroke-linejoin="round"/>
<path d="M33.7,14.5c0,0,0.4-5.5,3.7-4.4c3.3,1.2,0.8,5.7,0.8,5.7s4.7-0.7,4.6,2.6s-4.5,2.2-4.5,2.2s3.3,3.8,0,5.3
	s-4.5-3.7-4.5-3.7s-4.4,4.3-6.1,0.9s3-5,3-5S26.1,15.5,28,13S33.7,14.5,33.7,14.5z" stroke="#4E7661" stroke-width="1.5" stroke-linecap="round" stroke-linejoin="round"/>
</svg>
