<svg width="70" height="70" viewBox="0 0 70 70" fill="none" xmlns="http://www.w3.org/2000/svg">
<path d="M29.8,28.2" stroke="#4E7661" stroke-width="1.5" stroke-linecap="round" stroke-linejoin="round"/>
<path d="M13.5,28.2h16.4" stroke="#4E7661" stroke-width="1.5" stroke-linecap="round" stroke-linejoin="round"/>
<path d="M53.4,51.1H9.2" stroke="#4E7661" stroke-width="1.5" stroke-linecap="round" stroke-linejoin="round"/>
<path d="M44.2,28.2h15.5" stroke="#4E7661" stroke-width="1.5" stroke-linecap="round" stroke-linejoin="round"/>
<path d="M44.2,28.2" stroke="#4E7661" stroke-width="1.5" stroke-linecap="round" stroke-linejoin="round"/>
<g>
	<path d="M42.5,46.2c-2.6,0-2.6-4-5.1-4c-2.6,0-2.6,4-5.1,4c-2.6,0-2.6-4-5.1-4c-2.6,0-2.6,4-5.1,4c-2.6,0-2.6-4-5.1-4
		c-2.6,0-2.6,4-5.1,4" stroke="#4E7661" stroke-width="1.5" stroke-linecap="round" stroke-linejoin="round"/>
</g>
<g>
	<path d="M52.4,39.5c-2.6,0-2.6-4-5.1-4c-2.6,0-2.6,4-5.1,4c-2.6,0-2.6-4-5.1-4c-2.6,0-2.6,4-5.1,4c-2.6,0-2.6-4-5.1-4
		s-2.6,4-5.1,4" stroke="#4E7661" stroke-width="1.5" stroke-linecap="round" stroke-linejoin="round"/>
</g>
<path d="M44.2,34V18.5c0-1.8,1.4-3.2,3.2-3.2h0c1.8,0,3.2,1.4,3.2,3.2" stroke="#4E7661" stroke-width="1.5" stroke-linecap="round" stroke-linejoin="round"/>
<path d="M29.8,34V18.5c0-1.8,1.4-3.2,3.2-3.2h0c1.8,0,3.2,1.4,3.2,3.2" stroke="#4E7661" stroke-width="1.5" stroke-linecap="round" stroke-linejoin="round"/>
<line x1="29.9" y1="30.7" x2="44.2" y2="30.7" stroke="#4E7661" stroke-width="1.5" stroke-linecap="round" stroke-linejoin="round"/>
<line x1="29.8" y1="23.6" x2="44.2" y2="23.6" stroke="#4E7661" stroke-width="1.5" stroke-linecap="round" stroke-linejoin="round"/>
</svg>
