<svg width="70" height="70" viewBox="0 0 70 70" fill="none" xmlns="http://www.w3.org/2000/svg">
<path d="M12.4,62.4c0,0-2.7-2.9-0.5-7.2s8.4-3.7,9.8-0.7" stroke="#4E7661" stroke-width="1.5" stroke-linecap="round" stroke-linejoin="round" />
<path d="M6.2,31.8c0,0-3.4-10.3,7.1-10.8" stroke="#4E7661" stroke-width="1.5" stroke-linecap="round" stroke-linejoin="round" />
<path d="M16.2,23.9c0,0-5.9-5.7-2.6-11.5s13-10.9,20.4,0.4" stroke="#4E7661" stroke-width="1.5" stroke-linecap="round" stroke-linejoin="round" />
<path d="M41.5,14.7c0,0,2.8-7.5,9.4-7.3c6.6,0.3,8.4,6.3,8.3,9.7c0,3.4-2.7,6.2-2.7,6.2" stroke="#4E7661" stroke-width="1.5" stroke-linecap="round" stroke-linejoin="round" />
<path d="M58.3,20.7c0,0,8.5,2,5.4,11.5" stroke="#4E7661" stroke-width="1.5" stroke-linecap="round" stroke-linejoin="round" />
<path d="M31.7,9.1c0,0,7-4.7,12.1,1.8" stroke="#4E7661" stroke-width="1.5" stroke-linecap="round" stroke-linejoin="round" />
<path d="M35,55.3c1.4-1.5,5.1-2.2,8.4,0" stroke="#4E7661" stroke-width="1.5" stroke-linecap="round" stroke-linejoin="round" />
<path d="M43.3,58.3c0.1-5,5.5-8.2,10-6.5c2.2,0.8,4.1,2.8,5.2,4.8c1.3,2.4,0.5,4.9-0.7,7.3" stroke="#4E7661" stroke-width="1.5" stroke-linecap="round" stroke-linejoin="round" />
<path d="M21.3,56c1.2-2.6,3.2-4.6,6.2-4.8c2.6-0.2,5.9,1.3,7,3.8c0.9,1.9,0.8,4.3,0.1,6.3" stroke="#4E7661" stroke-width="1.5" stroke-linecap="round" stroke-linejoin="round" />
<path d="M30,44.8" stroke="#4E7661" stroke-width="1.5" stroke-linecap="round" stroke-linejoin="round" />
<path d="M42.6,33.7c0,3.4-2.8,8.8-6.2,8.8s-6.2-5.4-6.2-8.8s2.8-6.1,6.2-6.1S42.6,30.4,42.6,33.7z" stroke="#4E7661" stroke-width="1.5" stroke-linecap="round" stroke-linejoin="round" />
<path d="M40,28.4l3.7-0.1c0,0,0.9-3.3-2.1-5.7c-3.4-2.7-8.8-1.1-11.5,2.3s0,8.6,0,8.6" stroke="#4E7661" stroke-width="1.5" stroke-linecap="round" stroke-linejoin="round" />
<path d="M42.7,34.9c0,0,3.1-2.9,1-6.6" stroke="#4E7661" stroke-width="1.5" stroke-linecap="round" stroke-linejoin="round" />
<path d="M29.3,26.5c0,0-1.4-3.9,2.7-6.1s6.7,0.9,6.7,0.9" stroke="#4E7661" stroke-width="1.5" stroke-linecap="round" stroke-linejoin="round" />
<path d="M34.9,42.3c0,0,0.1,3.4-0.8,3.8s-6.9,1-7.5,4.4" stroke="#4E7661" stroke-width="1.5" stroke-linecap="round" stroke-linejoin="round" />
<path d="M37.7,42.3c0,0-0.1,3.4,0.8,3.8s7.9,0.2,8.3,6.2" stroke="#4E7661" stroke-width="1.5" stroke-linecap="round" stroke-linejoin="round" />
<path d="M42.3,53.9" stroke="#4E7661" stroke-width="1.5" stroke-linecap="round" stroke-linejoin="round" />
</svg>
