<svg width="70" height="70" viewBox="0 0 70 70" fill="none" xmlns="http://www.w3.org/2000/svg">
<path d="M22.5,43c-1.3,0.1-2.9,0.2-4.3,0.5c-5,0.9-8.2,2.1-8.2,3.5c0,2.6,11.2,4.8,25,4.8s25-2.1,25-4.8
	c0-1.3-2.4-2.7-7-3.3c-2.8-0.4-5.7-0.6-7.5-0.8" stroke="#4E7661" stroke-width="1.5" stroke-linecap="round" stroke-linejoin="round"/>
<path d="M60,47.1c0,8.5-11.2,18.6-25,18.6S10,55.5,10,47.1" stroke="#4E7661" stroke-width="1.5" stroke-linecap="round" stroke-linejoin="round"/>
<path d="M22.3,24.4l-1,0.7l-1.8-2.6c-0.6-0.9-0.4-2.2,0.5-2.8l1-0.7l1.8,2.6C23.4,22.5,23.2,23.7,22.3,24.4z" stroke="#4E7661" stroke-width="1.5" stroke-linecap="round" stroke-linejoin="round"/>
<path d="M21.3,36.4l-1,0.7l-1.8-2.6c-0.6-0.9-0.4-2.2,0.5-2.8l1-0.7l1.8,2.6C22.4,34.5,22.2,35.8,21.3,36.4z" stroke="#4E7661" stroke-width="1.5" stroke-linecap="round" stroke-linejoin="round"/>
<path d="M51,39.1l-1,0.7l-1.8-2.6c-0.6-0.9-0.4-2.2,0.5-2.8l1-0.7l1.8,2.6C52.2,37.2,51.9,38.5,51,39.1z" stroke="#4E7661" stroke-width="1.5" stroke-linecap="round" stroke-linejoin="round"/>
<path d="M46,26.6l-1,0.7l-1.8-2.6c-0.6-0.9-0.4-2.2,0.5-2.8l1-0.7l1.8,2.6C47.1,24.7,46.9,26,46,26.6z" stroke="#4E7661" stroke-width="1.5" stroke-linecap="round" stroke-linejoin="round"/>
<path d="M30.6,23.1l-1,0.7l-1.8-2.6c-0.6-0.9-0.4-2.2,0.5-2.8l1-0.7l1.8,2.6C31.7,21.2,31.5,22.5,30.6,23.1z" stroke="#4E7661" stroke-width="1.5" stroke-linecap="round" stroke-linejoin="round"/>
<path d="M36.2,9.8l-1,0.7l-1.8-2.6C32.8,7,33,5.7,33.9,5.1l1-0.7L36.7,7C37.3,7.9,37.1,9.1,36.2,9.8z" stroke="#4E7661" stroke-width="1.5" stroke-linecap="round" stroke-linejoin="round"/>
<path d="M23.4,51.3c-0.6-1.6-0.9-3.3-0.9-4.8c0-3.2,0.8-6.8,3.1-9.2c2.4-2.7,6.9-3.9,9.9-1.3c1.7,1.5,2.1,4.2,2.2,6.4
	c0.2,3.2-0.6,6.7-2.4,9.4" stroke="#4E7661" stroke-width="1.5" stroke-linecap="round" stroke-linejoin="round"/>
<path d="M32.7,34.6c0.9,2.7,0.5,5.6-0.8,8.1c-1.1,2.1-2.8,3.8-3.7,6c-0.4,0.9-0.6,1.9-0.8,2.9" stroke="#4E7661" stroke-width="1.5" stroke-linecap="round" stroke-linejoin="round"/>
<path d="M38,40c3-0.5,6.3,1.6,8.2,3.7c1.8,2,3.4,4.5,3.9,7.2" stroke="#4E7661" stroke-width="1.5" stroke-linecap="round" stroke-linejoin="round"/>
<path d="M43.7,51.1c0-1.6-0.5-3.9-1.4-5.7C41,42.6,40,41.1,38.9,40" stroke="#4E7661" stroke-width="1.5" stroke-linecap="round" stroke-linejoin="round"/>
<path d="M36.7,49c0,0,0.8,2.3,0.9,2.7" stroke="#4E7661" stroke-width="1.5" stroke-linecap="round" stroke-linejoin="round"/>
</svg>
