<svg width="70" height="70" viewBox="0 0 70 70" fill="none" xmlns="http://www.w3.org/2000/svg">
<polyline points="19.6,37.6 12,39.3 6,49 20.1,60 50.8,60 64,48.8 57.1,39.1 50.6,37.6 " stroke="#4E7661" stroke-width="1.5" stroke-linecap="round" stroke-linejoin="round"/>
<polyline points="64,48.8 64,54.4 50.8,65.6 20.1,65.6 6,54.6 6,49 " stroke="#4E7661" stroke-width="1.5" stroke-linecap="round" stroke-linejoin="round"/>
<polygon points="23.4,43.3 23.4,22.6 27.8,21.1 27.8,44.9 " stroke="#4E7661" stroke-width="1.5" stroke-linecap="round" stroke-linejoin="round"/>
<polygon points="42.4,44.9 42.4,21.1 46.6,22.6 46.6,43.3 " stroke="#4E7661" stroke-width="1.5" stroke-linecap="round" stroke-linejoin="round"/>
<line x1="42.4" y1="21.1" x2="27.8" y2="21.1" stroke="#4E7661" stroke-width="1.5" stroke-linecap="round" stroke-linejoin="round"/>
<path d="M42.4,44.9H27.8L25,47.6c0,0,2.3,2.4,10.1,2.4s10.2-2.2,10.2-2.2L42.4,44.9z" stroke="#4E7661" stroke-width="1.5" stroke-linecap="round" stroke-linejoin="round"/>
<polyline points="44.6,21.8 42.4,17.6 37.6,17.6 32.6,17.6 27.8,17.6 25.6,21.8 " stroke="#4E7661" stroke-width="1.5" stroke-linecap="round" stroke-linejoin="round"/>
<path d="M28.2,17.6v-3.9c0-3.9,3.1-7,7-7l0,0c3.9,0,7,3.1,7,7v3.9" stroke="#4E7661" stroke-width="1.5" stroke-linecap="round" stroke-linejoin="round"/>
<line x1="35.1" y1="6.7" x2="35.1" y2="4.4" stroke="#4E7661" stroke-width="1.5" stroke-linecap="round" stroke-linejoin="round"/>
<path d="M35.1,39.6c0,0-1.6-1.9-2.9-2.4c-1.1-0.4,0-4.3-1.7-4.3" stroke="#4E7661" stroke-width="1.5" stroke-linecap="round" stroke-linejoin="round"/>
<path d="M35.2,39.6c0,0,1.6-1.9,2.9-2.4c1.1-0.4,0-4.3,1.7-4.3" stroke="#4E7661" stroke-width="1.5" stroke-linecap="round" stroke-linejoin="round"/>
<path d="M35.1,26.3c0,0-1.6,1.9-2.9,2.4c-1.1,0.4,0,4.3-1.7,4.3" stroke="#4E7661" stroke-width="1.5" stroke-linecap="round" stroke-linejoin="round"/>
<path d="M35.2,26.3c0,0,1.6,1.9,2.9,2.4c1.1,0.4,0,4.3,1.7,4.3" stroke="#4E7661" stroke-width="1.5" stroke-linecap="round" stroke-linejoin="round"/>
</svg>
